<?xml version="1.0" encoding="UTF-8" standalone="no" ?>
<!DOCTYPE svg PUBLIC "-//W3C//DTD SVG 1.1//EN" "http://www.w3.org/Graphics/SVG/1.1/DTD/svg11.dtd">
<svg xmlns="http://www.w3.org/2000/svg" xmlns:xlink="http://www.w3.org/1999/xlink" version="1.1" width="500" height="500" viewBox="0 0 500 500" xml:space="preserve">
<desc>Created with Fabric.js 3.6.3</desc>
<defs>
</defs>
<g transform="matrix(1.3042062984627334 0 0 1.1200881380829968 250 250)"  >
<rect style="stroke: rgb(0,0,0); stroke-width: 1; stroke-dasharray: none; stroke-linecap: butt; stroke-dashoffset: 0; stroke-linejoin: miter; stroke-miterlimit: 10; fill: none; fill-rule: nonzero; opacity: 1;"  x="-86.87" y="-135.65" rx="0" ry="0" width="173.74" height="271.3" />
</g>
<g transform="matrix(1.648784336970179 -4.0384e-16 4.0384e-16 1.648784336970179 250 205.8577278149931)"  >
<g style=""   >
		<g transform="matrix(1 0 0 1 0.04103389887166031 -11.569213379428785)"  >
<path style="stroke: rgb(1,1,1); stroke-width: 0.5; stroke-dasharray: none; stroke-linecap: butt; stroke-dashoffset: 0; stroke-linejoin: miter; stroke-miterlimit: 10; fill: rgb(40,40,40); fill-rule: nonzero; opacity: 1;"  transform=" translate(-50.04103389887166, -38.43078662057121)" d="M 21.1 11.2 l -0.2 -0.6 c -0.1 -0.3 0.1 -0.6 0.4 -0.6 c 0.1 0 0.2 0 0.3 0 c 0.2 0 0.3 -0.1 0.4 -0.2 C 22 9.4 22.3 9.2 23 9.4 c 0 0 0.6 -0.9 1.7 1.1 c 0 0 0 0.1 0.1 0.1 c 0.2 0.2 0.8 0.6 2.8 0.9 c 2 0.3 3.4 1.3 3.8 1.7 c 0.1 0.1 0.2 0.1 0.4 0.1 l 0.6 -0.1 c 0.1 0 0.3 0 0.4 0.1 l 0.3 0.2 c 0.1 0 0.1 0.1 0.2 0.1 c 0.3 0 1 0.1 1.7 0.5 c 0.8 0.5 0.6 0.9 0.6 0.9 s -0.6 -2.3 4 -3.3 c 0.1 0 0.1 0 0.2 0 c 0.6 0.1 4.4 0.7 4.4 3.5 c 0 0.1 0 0.3 0.1 0.3 l 1.2 1.2 c 0.1 0.1 0.2 0.1 0.4 0.1 c 0.4 0 1.6 0 3 0.7 c 0.1 0 0.2 0.1 0.3 0 c 0.5 0 2.5 -0.1 5.4 1.3 c 0.1 0.1 0.3 0.1 0.4 0 l 0.1 -0.1 c 0.2 -0.1 0.3 -0.1 0.5 0 l 0.6 0.4 c 0.1 0.1 0.2 0.1 0.3 0.1 h 1.4 c 0 0 -0.1 -0.4 1 0.6 c 0.2 0.2 0.5 0.2 0.7 0 l 0.1 -0.1 c 0.1 -0.1 0.2 -0.2 0.3 -0.2 c 0.4 0 1.3 0 2.2 0.7 c 0.2 0.1 0.2 0.4 0.2 0.6 l 0 0 c -0.1 0.3 0 0.6 0.3 0.7 c 1.6 0.3 6 1.3 9.9 2.7 c 0 0 0.7 0.5 2.7 -1 c 0.1 -0.1 0.2 -0.1 0.3 -0.1 c 0.3 0 1 0.3 2.2 1.7 c 1.8 2.1 1.4 1.8 1.3 2.2 c -0.1 0.2 -2.6 -1 -3.3 -1.2 c -0.4 -0.1 -1.4 -0.2 -1.7 0.2 c -0.1 0.2 1.6 0.7 1.3 0.8 c -2 0.5 -3.5 -0.8 -4.8 -0.8 c -1.3 0 -3.6 -0.7 -8.2 -0.8 c -0.2 0 -0.3 0.1 -0.4 0.2 l -0.2 0.3 c -0.1 0.2 -0.4 0.3 -0.7 0.1 l -0.1 -0.1 c -0.2 -0.1 -0.4 -0.1 -0.6 0 c -0.3 0.3 -1.1 0.5 -2.4 -0.8 c -0.2 -0.2 -0.4 -0.2 -0.6 0 c -0.4 0.3 -1.2 0.7 -2 -0.6 c -0.1 -0.1 -0.2 -0.2 -0.3 -0.2 c -0.4 -0.1 -1.5 -0.4 -2.1 0.3 c -0.2 0.2 -0.4 0.2 -0.6 0 L 52 24.3 c -0.1 -0.1 -0.2 -0.1 -0.3 -0.1 l -1.8 0.3 c -0.2 0 -0.4 0.2 -0.4 0.4 l -0.6 3 c 0 0.1 0 0.2 0.1 0.3 c 0.3 0.5 1.1 2.2 0 4.2 c 0 0.1 -0.1 0.1 -0.1 0.2 c 0 0.5 0 2.7 1.4 3.3 c 0.8 0.3 0.8 0.6 0.6 0.7 c -0.2 0.2 -0.2 0.6 0 0.7 l 0.4 0.3 c 0.1 0.1 0.2 0.1 0.4 0.1 c 0.5 -0.1 1.7 -0.3 2.7 0.2 c 1.3 0.6 4.1 1.4 4.7 5.9 c 0 0.1 0 0.1 0.1 0.2 c 0.4 0.6 3.1 4.7 3.1 7.8 c 0 0 0 0.1 0 0.1 l 1.4 4.4 c 0 0 0 0 0 0.1 l 1.4 2.8 c 0 0 0 0 0 0 c 0.1 0.2 2.2 3.3 2 4.6 c 0 0.1 0 0.4 -0.1 0.5 l -1.5 1.7 c -0.1 0 -0.7 0.3 -0.8 0.3 c -0.5 0.1 -3 0 -3.3 -0.7 c -0.3 -0.8 -0.6 -3.2 -0.6 -3.4 c 0 0 0 0 0 0 V 61 c 0 -0.1 0 -0.1 -0.1 -0.2 L 60.5 60 c -0.1 -0.1 -0.1 -0.2 0 -0.3 l 0.2 -0.6 c 0.1 -0.2 0 -0.4 -0.1 -0.5 c -1 -0.9 -5 -4.7 -4.3 -6.5 c 0 -0.1 0.1 -0.2 0 -0.3 c -0.1 -0.5 -0.4 -2.3 -2.2 -4.8 c 0 0 -1.1 -1.7 -10.3 -0.1 c -8.8 1.5 -8.6 1.5 -9.4 2.6 c -0.1 0.1 -0.1 0.3 -0.1 0.4 c 0.2 0.9 1.2 4.6 3.4 7.3 c 0 0 0 0 0 0 c 0.1 0.2 1.3 2.2 -1.2 4.8 c 0 0 -0.1 0.1 -0.1 0.2 c -0.3 0.8 -2.3 6.1 -5.5 5.4 c -2.8 -0.7 -0.4 -4.6 0.6 -6 c 0.2 -0.3 0.1 -0.6 -0.2 -0.7 l -0.3 -0.1 c -0.1 0 -0.3 -0.2 -0.3 -0.3 L 30.4 59 c 0 0 0 0 0 0 L 30 57.4 c 0 0 0 -0.1 -0.1 -0.1 c -0.2 -0.4 -1.4 -2.4 -1.5 -4.7 c 0 -0.1 0 -0.2 -0.1 -0.3 c -0.4 -0.4 -1.3 -1.8 -0.7 -4.5 c 0 -0.1 0 -0.1 0 -0.2 c -0.1 -0.6 -0.6 -4 3.8 -5.8 c 4.9 -2 3.3 -3.1 3.3 -3.1 l 0 0 c -0.3 -0.1 -0.3 -0.5 -0.1 -0.7 l 0.7 -0.8 c 0.1 -0.1 0.1 -0.2 0.1 -0.3 v -0.8 c 0 -0.1 0 -0.2 0.1 -0.3 c 0.2 -0.2 0.6 -1 0.1 -3.3 c -0.6 -2.7 -0.2 -6.8 -0.1 -7.7 c 0 -0.1 0 -0.2 -0.1 -0.3 l -4.2 -5.3 c 0 -0.1 -0.1 -0.1 -0.2 -0.1 l -1.5 -0.8 c -0.1 -0.1 -0.2 -0.2 -0.3 -0.3 l -0.2 -1.2 c 0 0 0 0 0 -0.1 l 0 -0.8 c 0 -0.1 -0.1 -0.3 -0.2 -0.4 c -0.5 -0.4 -2 -1.4 -3.1 -2.3 c -0.8 -0.7 -1.8 -0.8 -2.3 -0.7 c -0.2 0 -0.4 0.2 -0.4 0.4 c 0 0.1 -0.1 0.2 -0.3 0.1 c -0.2 -0.1 -0.4 0 -0.5 0.2 C 22 13.4 21.7 13.3 21.1 11.2 z" stroke-linecap="round" />
</g>
		<g transform="matrix(1 0 0 1 -10.280311578075676 24.960562012669936)"  >
<path style="stroke: rgb(1,1,1); stroke-width: 0.5; stroke-dasharray: none; stroke-linecap: butt; stroke-dashoffset: 0; stroke-linejoin: miter; stroke-miterlimit: 10; fill: rgb(40,40,40); fill-rule: nonzero; opacity: 1;"  transform=" translate(-39.719688421924324, -74.96056201266994)" d="M 33.9 88.2 c 0 0 7 -9.3 12.1 -20 c 0 0 5.8 -6 3.5 -8.4 S 43 62.2 43 62.2 l -1.5 3.1 l -0.4 -0.5 l 0.3 -0.8 c 0 0 -0.1 -1.2 -1.8 -0.9 c 0 0 -1.4 0.8 -0.5 1.8 C 40 66 40 65.3 40 65.3 s 0.8 0.9 0.3 1.9 c -0.5 1 -8.2 13.8 -8.2 13.8 l -0.6 0 l 0.4 -0.6 c 0 0 0.3 -1.4 -1.7 -1 c 0 0 -0.8 0.4 -0.8 1.2 s 0.6 1.1 1.1 1 c 0.5 -0.2 0.4 1.2 0.4 1.2 s -1.2 4.9 0 6.8 S 33.1 91.2 33.9 88.2 z" stroke-linecap="round" />
</g>
</g>
</g>
<g transform="matrix(1 0 0 1 251.25783833185358 339.95423897364356)" style=""  ><path fill="#000000" opacity="1" d="M-75.81 16.67C-80.74 16.67-87.92 16.35-94.78 15.20L-95.03 19.62C-88.24 20.52-81.06 21.03-75.23 21.03C-66.20 21.03-55.18 19.23-55.18 8.34C-55.18-1.27-63.83-3.00-75.23-4.93C-84.72-6.46-89.84-7.36-89.84-13.64C-89.84-21.33-82.03-22.04-74.78-22.04C-70.11-22.04-63.57-21.72-57.48-20.63L-57.16-25.05C-63.25-25.88-69.85-26.46-74.98-26.46C-84.91-26.46-94.46-24.34-94.46-13.77C-94.46-3.71-85.93-2.30-75.23-0.44C-66.52 0.97-59.73 1.80-59.73 8.34C-59.73 15.97-68.89 16.67-75.81 16.67Z"/><path fill="#000000" opacity="1" d="M-39.22 20.13L-39.22-0.44L-27.68-0.44L-9.10 20.13L-3.14 20.13L-23.65-2.68L-3.14-25.56L-9.10-25.56L-27.75-4.93L-39.22-4.93L-39.22-25.56L-43.83-25.56L-43.83 20.13Z"/><path fill="#000000" opacity="1" d="M1.09 8.34C1.09 17.31 10.96 21.22 20.76 21.22C30.12 21.22 41.01 17.50 41.01 7.89C41.01 2.19 37.30-0.70 31.46-2.55C36.21-5.82 39.47-8.51 39.47-13.77C39.47-22.68 30.44-26.59 20.96-26.59C11.53-26.59 2.63-22.80 2.63-13.26C2.63-8.00 5.32-5.18 9.61-3.32C4.74-0.70 1.09 2.83 1.09 8.34ZM21.02-0.44C29.61 0.97 36.46 2.19 36.46 7.89C36.46 14.36 27.75 16.80 20.76 16.80C13.65 16.80 5.58 14.36 5.58 8.21C5.58 3.79 9.55 0.33 13.71-1.98C15.89-1.40 18.39-0.89 21.02-0.44ZM21.02-4.93C13.91-6.14 7.37-6.91 7.37-13.26C7.37-19.79 14.29-22.23 21.02-22.23C28.00-22.23 34.93-19.54 34.93-13.70C34.93-8.83 30.44-6.08 27.17-3.71C25.25-4.16 23.20-4.54 21.02-4.93Z"/><path fill="#000000" opacity="1" d="M83.12 20.13C89.20 20.13 94.14 16.61 94.14 8.34C94.14 2.00 91.45-1.46 87.67-2.87C91.00-4.48 93.30-7.94 93.30-13.77C93.30-22.04 88.24-25.56 82.28-25.56L50.82-25.56L50.82 20.13ZM83.12-0.44C86.58-0.44 89.52 2.19 89.52 7.89C89.52 13.72 86.58 15.71 83.12 15.71L55.43 15.71L55.43-0.44ZM82.28-20.82C85.68-20.82 88.69-18.96 88.69-13.26C88.69-7.55 85.68-4.93 82.28-4.93L55.43-4.93L55.43-20.82Z"/></g></svg>